<svg xmlns="http://www.w3.org/2000/svg" viewBox="0 0 63.03 63.73"><defs><style>.cls-1,.cls-2{fill:none;}.cls-1,.cls-2,.cls-4{stroke:#34446e;stroke-miterlimit:10;}.cls-1{stroke-width:2px;}.cls-3{fill:#34446e;}.cls-4{fill:#fcfcfc;stroke-width:1.5px;}</style></defs><title>map</title><g id="Слой_2" data-name="Слой 2"><g id="Слой_1-2" data-name="Слой 1"><polygon class="cls-1" points="1 11.25 1 19 1 62.25 16 56.25 36 62.25 61 56.25 62 2.25 50 8.25 28 9.25 16 5.25 1 11.25"/><polygon class="cls-2" points="1 19 14.5 38.5 1.5 45.75 1 19"/><polygon class="cls-2" points="8.5 8.75 24.1 33.12 52.33 15.14 50.5 8.75 28.5 9.75 15.5 5.75 8.5 8.75"/><polygon class="cls-2" points="27.5 38.75 34.73 49.89 56.7 35.03 49.5 24.75 27.5 38.75"/><polygon class="cls-2" points="38.01 54.76 41.62 60.9 60.5 55.75 60.83 39.79 38.01 54.76"/><polygon class="cls-2" points="1.5 52.75 17.5 43.75 27.5 59.7 15.5 55.75 1.5 61.75 1.5 52.75"/><polygon class="cls-3" points="61.5 16.75 42.5 29.2 29.5 11.75 42.5 7.75 51 7.75 61.5 2.75 61.5 16.75"/><path class="cls-4" d="M40.18.75a13.68,13.68,0,0,0-8.89,24.08l8.38,13.42,9-13.08A13.69,13.69,0,0,0,40.18.75Zm0,18.24a4.56,4.56,0,1,1,4.56-4.56A4.55,4.55,0,0,1,40.18,19Z"/></g></g></svg>