<svg xmlns="http://www.w3.org/2000/svg" xmlns:xlink="http://www.w3.org/1999/xlink" viewBox="0 0 78.37 99.74"><defs><style>.cls-1{fill:url(#Безымянный_градиент);}.cls-2{fill:#f9fafa;}.cls-3{fill:none;}</style><linearGradient id="Безымянный_градиент" x1="39.19" y1="149.29" x2="39.19" y2="49.56" gradientTransform="matrix(1, 0, 0, -1, 0, 149.29)" gradientUnits="userSpaceOnUse"><stop offset="0" stop-color="#00b7f4"/><stop offset="1" stop-color="#374069"/></linearGradient></defs><title>logo</title><g id="Слой_2" data-name="Слой 2"><g id="Слой_1-2" data-name="Слой 1"><g id="Слой_2-2" data-name="Слой 2"><g id="Слой_1-2-2" data-name="Слой 1-2"><path class="cls-1" d="M26.46,0,60,73,58.05,0H78.37V99.73H53.05l-34.19-74,1.29,74H0V0Z"/><path class="cls-2" d="M60.19,78.58A38.58,38.58,0,0,1,59,86.67a27.67,27.67,0,0,1-3.16,7.67l-4.34-2.92a24.59,24.59,0,0,0,2.92-6.73,34.05,34.05,0,0,0,1-6.11Z"/><polygon class="cls-2" points="52.44 59.43 50.71 61.78 46 56.03 47.19 54.05 52.44 59.43"/><polygon class="cls-2" points="45.15 52.49 44.12 54.52 39.5 50.24 40.17 48.88 45.15 52.49"/><path class="cls-2" d="M39.35,48.52l-.59,1.1L34.2,46.31l.29-.77Z"/><polygon class="cls-2" points="33.13 44.86 32.89 45.55 30.61 43.61 33.13 44.86"/><path class="cls-3" d="M32.91,52.17A18.84,18.84,0,0,0,29.64,49l9.12,19.73A13.41,13.41,0,0,0,39,66C38.85,59.58,33.84,53.33,32.91,52.17Z"/><path class="cls-2" d="M19,90.32c-1.59,1-5.77,3.23-10.57,5.64-3.29,1.64-6,2.92-7.92,3.78H13.4c2.58-1.54,4.8-2.95,6.68-4.21L20,89.69Z"/><path class="cls-2" d="M32.91,52.17c.93,1.15,5.94,7.4,6.08,13.88a13.41,13.41,0,0,1-.23,2.7L41.16,74a18.77,18.77,0,0,0,.71-2.64,23.68,23.68,0,0,0,.43-5.11,23.49,23.49,0,0,0-3.34-11,23.38,23.38,0,0,0-9.73-9.72c-.52-.27-1-.53-1.56-.78l2,4.26A18.84,18.84,0,0,1,32.91,52.17Z"/><path class="cls-2" d="M3.53,37.72a55,55,0,0,1,7.26,1.57,53.54,53.54,0,0,1,8.33,3.16V41.32A90,90,0,0,0,3.53,37.72Z"/><path class="cls-2" d="M3.53,37.72a101.51,101.51,0,0,1,15.47,1V38.2A118.65,118.65,0,0,0,3.53,37.72Z"/><path class="cls-2" d="M76.72,81.4a43.45,43.45,0,0,0-3.82-13c-3.34-6.93-8-11.51-11.64-15-.54-.52-1.15-1.08-1.86-1.68l.06,3.9A37.4,37.4,0,0,1,67.21,67c.4.89,1,2.24,1.67,4a61.71,61.71,0,0,1,3.58,17.1,64.42,64.42,0,0,1-.24,11.61h3.92A51.25,51.25,0,0,0,76.72,81.4Z"/><path class="cls-2" d="M34.82,40.85C32,40.17,28.7,39.5,25,38.95l.42.93a95.07,95.07,0,0,1,21.72,7.44l1.12.55-1.56-3.39A89.91,89.91,0,0,0,34.82,40.85Z"/><path class="cls-2" d="M55.16,62.58c-.22-.3-.43-.57-.62-.8L52,64.55a18.74,18.74,0,0,1,2,4,25.82,25.82,0,0,1,1.15,4.33h4.44c-.1-.45-.23-.95-.37-1.47Z"/></g></g></g></g></svg>